<svg id="Layer_1" data-name="Layer 1" xmlns="http://www.w3.org/2000/svg" xmlns:xlink="http://www.w3.org/1999/xlink" viewBox="0 0 106.3 105.45"><defs><style>.cls-1,.cls-4{fill:none;}.cls-1{clip-rule:evenodd;}.cls-2{clip-path:url(#clip-path);}.cls-3{fill:#4374ba;}.cls-4{stroke:#4374ba;stroke-width:6.08px;}.cls-5{fill:#fff;}</style><clipPath id="clip-path" transform="translate(0 0)"><polyline class="cls-1" points="106.3 0 106.3 105.45 0 105.45 0 0"/></clipPath></defs><title>fump single</title><g class="cls-2"><circle class="cls-3" cx="52.87" cy="52.72" r="49.68"/><circle class="cls-4" cx="52.87" cy="52.72" r="49.68"/><polygon class="cls-5" points="0 69.73 0 34.89 23.88 34.89 23.88 40.78 7.03 40.78 7.03 49.05 21.57 49.05 21.57 54.95 7.03 54.95 7.03 69.73 0 69.73"/><path class="cls-5" d="M42.17,69.74V66a9.73,9.73,0,0,1-3.62,3.19,10.13,10.13,0,0,1-4.73,1.16,9.22,9.22,0,0,1-4.55-1.12,6.61,6.61,0,0,1-2.92-3.14,14,14,0,0,1-.9-5.59v-16h6.68v11.6a32.27,32.27,0,0,0,.37,6.52,3.54,3.54,0,0,0,1.34,1.9,4.11,4.11,0,0,0,2.46.7,5.21,5.21,0,0,0,3.06-.94,4.78,4.78,0,0,0,1.84-2.33q.5-1.39.5-6.81V44.49h6.68V69.74Z" transform="translate(0 0)"/><path class="cls-5" d="M42.2,44.49h6.15v3.45a9.92,9.92,0,0,1,7.88-4,8.5,8.5,0,0,1,4.21,1,7.71,7.71,0,0,1,2.93,3,11.69,11.69,0,0,1,3.59-3,8.84,8.84,0,0,1,4.12-1,9.16,9.16,0,0,1,4.71,1.13,6.93,6.93,0,0,1,2.88,3.32,14.42,14.42,0,0,1,.69,5.23V69.74H72.67V55.3q0-3.76-.69-4.85A3.16,3.16,0,0,0,69.12,49a4.54,4.54,0,0,0-2.64.86,4.73,4.73,0,0,0-1.78,2.51,18.05,18.05,0,0,0-.55,5.22V69.74H57.47V55.9a19.37,19.37,0,0,0-.36-4.76A3.06,3.06,0,0,0,56,49.54,3.49,3.49,0,0,0,54,49a4.87,4.87,0,0,0-2.78.84,4.56,4.56,0,0,0-1.77,2.4,17.85,17.85,0,0,0-.54,5.21V69.74H42.2Z" transform="translate(0 0)"/><path class="cls-5" d="M88.28,56.7Q88.28,61,90,63a5.15,5.15,0,0,0,4.11,2,4.83,4.83,0,0,0,3.87-1.87q1.54-1.86,1.54-6.12,0-4-1.59-5.89A4.93,4.93,0,0,0,94,49.21a5.12,5.12,0,0,0-4.06,1.89A8.41,8.41,0,0,0,88.28,56.7ZM81.69,44.49h6.24V48.2a9.29,9.29,0,0,1,3.28-3.09,9,9,0,0,1,4.58-1.19,9.6,9.6,0,0,1,7.45,3.45q3.06,3.45,3.06,9.6,0,6.32-3.09,9.83a9.62,9.62,0,0,1-7.48,3.5,8.47,8.47,0,0,1-3.79-.83,12.7,12.7,0,0,1-3.58-2.85V79.33H81.69Z" transform="translate(0 0)"/></g></svg>