<?xml version="1.0" encoding="utf-8"?>
<!-- Generator: Adobe Illustrator 12.0.0, SVG Export Plug-In . SVG Version: 6.00 Build 51448)  -->
<!DOCTYPE svg PUBLIC "-//W3C//DTD SVG 1.1//EN" "http://www.w3.org/Graphics/SVG/1.1/DTD/svg11.dtd" [
	<!ENTITY ns_svg "http://www.w3.org/2000/svg">
	<!ENTITY ns_xlink "http://www.w3.org/1999/xlink">
]>
<svg  version="1.1" id="Layer_1" xmlns="&ns_svg;" xmlns:xlink="&ns_xlink;" width="26.219" height="26.01"
	 viewBox="0 0 26.219 26.01" overflow="visible" enable-background="new 0 0 26.219 26.01" xml:space="preserve">
<circle fill="#00ADEF" stroke="#00ADEF" stroke-width="1.5" cx="13.041" cy="13.005" r="12.255"/>
<g>
	<path fill="#FFFFFF" d="M0,17.201V8.607h5.891v1.453H1.734v2.039H5.32v1.453H1.734v3.648H0z"/>
	<path fill="#FFFFFF" d="M10.4,17.201v-0.932c-0.227,0.332-0.523,0.594-0.893,0.785c-0.368,0.191-0.757,0.287-1.167,0.287
		c-0.417,0-0.792-0.092-1.124-0.275c-0.332-0.184-0.571-0.442-0.72-0.774C6.35,15.959,6.275,15.5,6.275,14.914v-3.94h1.648v2.859
		c0,0.875,0.03,1.411,0.09,1.608c0.061,0.197,0.17,0.354,0.33,0.469s0.362,0.173,0.607,0.173c0.28,0,0.532-0.077,0.753-0.231
		s0.374-0.346,0.456-0.574c0.082-0.229,0.123-0.788,0.123-1.679v-2.625h1.648v6.227H10.4z"/>
	<path fill="#FFFFFF" d="M10.409,10.974h1.516v0.85c0.544-0.66,1.192-0.99,1.943-0.99c0.399,0,0.746,0.082,1.039,0.246
		c0.294,0.164,0.534,0.412,0.723,0.743c0.273-0.332,0.569-0.579,0.886-0.743c0.317-0.164,0.655-0.246,1.016-0.246
		c0.458,0,0.845,0.093,1.162,0.279c0.317,0.186,0.554,0.458,0.71,0.817c0.113,0.266,0.17,0.696,0.17,1.29v3.981h-1.648V13.64
		c0-0.618-0.057-1.017-0.17-1.197c-0.152-0.235-0.387-0.352-0.704-0.352c-0.231,0-0.448,0.07-0.652,0.211
		c-0.204,0.141-0.35,0.347-0.44,0.619c-0.09,0.272-0.135,0.701-0.135,1.288v2.992h-1.648v-3.414c0-0.606-0.029-0.997-0.088-1.173
		c-0.059-0.176-0.149-0.307-0.273-0.393c-0.123-0.086-0.29-0.129-0.501-0.129c-0.254,0-0.482,0.068-0.686,0.206
		c-0.204,0.137-0.349,0.334-0.437,0.592s-0.132,0.686-0.132,1.285v3.027h-1.648V10.974z"/>
	<path fill="#FFFFFF" d="M20.149,10.974h1.539v0.914c0.199-0.313,0.468-0.566,0.808-0.762c0.34-0.195,0.716-0.293,1.13-0.293
		c0.722,0,1.335,0.284,1.838,0.85c0.503,0.567,0.755,1.356,0.755,2.369c0,1.04-0.254,1.848-0.761,2.424
		c-0.508,0.577-1.123,0.865-1.845,0.865c-0.344,0-0.655-0.068-0.934-0.205s-0.573-0.371-0.881-0.703v3.135h-1.648V10.974z
		 M21.774,13.985c0,0.7,0.139,1.216,0.416,1.55c0.277,0.334,0.615,0.501,1.014,0.501c0.383,0,0.701-0.153,0.955-0.46
		c0.254-0.307,0.381-0.81,0.381-1.509c0-0.653-0.131-1.137-0.393-1.454c-0.262-0.317-0.586-0.475-0.973-0.475
		c-0.402,0-0.736,0.155-1.002,0.466C21.907,12.915,21.774,13.375,21.774,13.985z"/>
</g>
</svg>
