<svg xmlns="http://www.w3.org/2000/svg" viewBox="0 0 106.3 105.23"><defs><style>.cls-1{fill:#007bff;}.cls-2{fill:#fff;}.cls-3{fill:none;stroke:#007bff;stroke-miterlimit:10;stroke-width:4.78px;}</style></defs><title>fump2Dsingle</title><g id="_2d_BG" data-name="2d BG"><path class="cls-1" d="M57.83,2.52C87.18,2.52,111,26.12,111,55.22S87.25,107.54,57.9,107.54,4.68,84.33,4.68,55.22,28.47,2.52,57.83,2.52Z" transform="translate(-4.68 -2.52)"/></g><g id="_2D_fump" data-name="2D fump"><path class="cls-2" d="M11.26,70.39V39.89c.21-.22.29-.38.5-.6,1.06-1.69,2.13-5.87,4.71-6.81a6.45,6.45,0,0,1,2.21-.42h16.4v6.5L20,38.53a22.86,22.86,0,0,0-2.11,4.33,15.93,15.93,0,0,0-1,4.82c5.21,0,4.55-.07,9.77-.09v6.61l-10.07-.14a31.56,31.56,0,0,0,.89,8.78,51,51,0,0,0,2.3,7.51C17.22,70.38,13.74,70.35,11.26,70.39Z" transform="translate(-4.68 -2.52)"/><path class="cls-2" d="M46.21,70.24V66.48A9.21,9.21,0,0,1,38.58,71a8.48,8.48,0,0,1-4.14-1.12,6.59,6.59,0,0,1-2.67-3.15,15,15,0,0,1-.83-5.7V44.71H37.1v11.8a31.52,31.52,0,0,0,.37,6.61,3.72,3.72,0,0,0,1.2,1.93,3.68,3.68,0,0,0,2.3.71,4.81,4.81,0,0,0,2.85-.92,5.83,5.83,0,0,0,1.66-2.34,34.48,34.48,0,0,0,.46-6.92v-11H52.1V70.24Z" transform="translate(-4.68 -2.52)"/><path class="cls-2" d="M46.21,44.61h5.7v3.56a8.9,8.9,0,0,1,7.27-4.07,7.38,7.38,0,0,1,3.86,1,7.46,7.46,0,0,1,2.67,3.05A11,11,0,0,1,69,45.12a8.21,8.21,0,0,1,8.1.1,7.1,7.1,0,0,1,2.67,3.36,17,17,0,0,1,.64,5.29V70.24H74.27V55.59c0-2.54-.18-4.17-.64-4.88A2.76,2.76,0,0,0,71,49.19a3.56,3.56,0,0,0-2.39.92,4.61,4.61,0,0,0-1.66,2.54,25.1,25.1,0,0,0-.55,5.29V70.24H60.2v-14a17.51,17.51,0,0,0-.37-4.88,3.65,3.65,0,0,0-1-1.63A2.46,2.46,0,0,0,57,49.19,4.6,4.6,0,0,0,54.4,50a4.87,4.87,0,0,0-1.66,2.44,20.59,20.59,0,0,0-.46,5.29V70.24H46.12V44.61Z" transform="translate(-4.68 -2.52)"/><path class="cls-2" d="M88.63,57c0,2.95.55,5.09,1.56,6.41a4.4,4.4,0,0,0,6.53,1,3.72,3.72,0,0,0,.83-.92c.92-1.22,1.38-3.36,1.38-6.2s-.46-4.68-1.47-6a4.39,4.39,0,0,0-3.59-1.93,4.73,4.73,0,0,0-3.77,1.93A8.81,8.81,0,0,0,88.63,57ZM82.56,44.61h5.7v3.76a8.6,8.6,0,0,1,3-3.15,8.22,8.22,0,0,1,11,2.34c1.84,2.34,2.85,5.59,2.85,9.77s-.92,7.63-2.85,10a8.79,8.79,0,0,1-6.9,3.56,8.42,8.42,0,0,1-3.5-.81,11.7,11.7,0,0,1-3.31-2.85V80.11H82.46l.09-35.5Z" transform="translate(-4.68 -2.52)"/><rect class="cls-2" x="2.23" y="35.28" width="6.19" height="30.93"/></g><g id="_2D_ring" data-name="2D ring"><path class="cls-3" d="M58,5c27.86,0,50.13,21.79,50.13,49.76a50.45,50.45,0,1,1-100.9,0C7.24,26.76,30.15,5,58,5Z" transform="translate(-4.68 -2.52)"/></g></svg>