<svg id="Layer_1" data-name="Layer 1" xmlns="http://www.w3.org/2000/svg" xmlns:xlink="http://www.w3.org/1999/xlink" viewBox="0 0 102.67 105.48"><defs><style>.cls-1{fill:none;}.cls-2{clip-path:url(#clip-path);}.cls-3{fill:#fff;}</style><clipPath id="clip-path" transform="translate(-6.96 -4)"><rect class="cls-1" x="4" y="4" width="106.3" height="105.48"/></clipPath></defs><title>fump single reverse</title><g class="cls-2"><path class="cls-3" d="M7.24,38.94H27.9v5.9H12.22V53H25.6v6H12.43v14.7H7a52.76,52.76,0,0,0,101-3.91,10.6,10.6,0,0,1-8.3,4.51,10,10,0,0,1-3.8-.8,12.45,12.45,0,0,1-3.6-2.8v12.7H85.6V48.54h6.3v3.7a9,9,0,0,1,3.3-3.1,9.52,9.52,0,0,1,12,2.3A12,12,0,0,1,109.63,56,52.75,52.75,0,0,0,7.24,38.94ZM79.8,49.14a7.15,7.15,0,0,1,2.9,3.3,15.55,15.55,0,0,1,.7,5.2v16.1H76.7V59.34c0-2.5-.2-4.1-.7-4.8A3.27,3.27,0,0,0,73.1,53a4.1,4.1,0,0,0-2.6.9,4.52,4.52,0,0,0-1.8,2.5,23.1,23.1,0,0,0-.6,5.2v12.1H61.4V59.94a15.63,15.63,0,0,0-.4-4.8,3.56,3.56,0,0,0-1.1-1.6,2.88,2.88,0,0,0-2-.5,5.38,5.38,0,0,0-2.8.8,4.81,4.81,0,0,0-1.8,2.4,18.34,18.34,0,0,0-.5,5.2v12.3H46.1V70.18a10.24,10.24,0,0,1-8.2,4.26,9.67,9.67,0,0,1-4.5-1.1,6.69,6.69,0,0,1-2.9-3.1,13.45,13.45,0,0,1-.9-5.6v-16h6.7v11.6a28,28,0,0,0,.4,6.5,3.62,3.62,0,0,0,1.3,1.9,4.29,4.29,0,0,0,2.5.7,5.61,5.61,0,0,0,3.1-.9,5,5,0,0,0,1.8-2.3,28.61,28.61,0,0,0,.5-6.8V48.54h6.7v3.24A10,10,0,0,1,60.3,48a8.67,8.67,0,0,1,4.2,1,7.63,7.63,0,0,1,2.9,3A11.56,11.56,0,0,1,71,49,9.73,9.73,0,0,1,79.8,49.14Zm14.1,6a8,8,0,0,0-1.6,5.6c0,2.9.6,5,1.7,6.3a5.08,5.08,0,0,0,8,.1c1-1.2,1.5-3.3,1.5-6.1s-.5-4.6-1.6-5.9a4.93,4.93,0,0,0-3.9-1.9A5.33,5.33,0,0,0,93.9,55.14Z" transform="translate(-6.96 -4)"/></g></svg>