<?xml version="1.0" encoding="utf-8"?>
<!-- Generator: Adobe Illustrator 21.0.0, SVG Export Plug-In . SVG Version: 6.00 Build 0)  -->
<svg version="1.1" xmlns="http://www.w3.org/2000/svg" xmlns:xlink="http://www.w3.org/1999/xlink" x="0px" y="0px"
	 viewBox="0 0 115.1 111.7" style="enable-background:new 0 0 115.1 111.7;" xml:space="preserve">
<style type="text/css">
	.st0{fill:#FFFFFF;}
	.st1{fill:#007BFF;}
	.st2{fill:url(#SVGID_1_);}
	.st3{fill:none;stroke:url(#SVGID_2_);stroke-width:4.7751;stroke-miterlimit:10;}
</style>
<g id="Layer_1">
	<title>fump and text</title>
	<rect x="-0.3" class="st0" width="116.2" height="112"/>
</g>
<g id="Layer_3">
	<path class="st1" d="M57.8,2.5c29.4,0,53.2,23.6,53.2,52.7s-23.7,52.3-53.1,52.3S4.7,84.3,4.7,55.2S28.5,2.5,57.8,2.5z"/>
</g>
<g id="Layer_4">
	<linearGradient id="SVGID_1_" gradientUnits="userSpaceOnUse" x1="20.3468" y1="17.716" x2="95.101" y2="92.4702">
		<stop  offset="0" style="stop-color:#FFFFFF;stop-opacity:0.1"/>
		<stop  offset="1" style="stop-color:#080808;stop-opacity:0.3"/>
	</linearGradient>
	<path class="st2" d="M57.7,2.3c29.4,0,53,23.6,53,52.7s-23.7,52.7-53,52.7S4.7,84.3,4.7,55.2S28.4,2.3,57.7,2.3z"/>
	<linearGradient id="SVGID_2_" gradientUnits="userSpaceOnUse" x1="20.4853" y1="17.6661" x2="95.0442" y2="92.225">
		<stop  offset="0" style="stop-color:#FFFFFF;stop-opacity:0.3"/>
		<stop  offset="1" style="stop-color:#1C1C1C;stop-opacity:0.2"/>
	</linearGradient>
	<path class="st3" d="M58,5c27.9,0,50.1,21.8,50.1,49.8s-22.6,50.6-50.5,50.6S7.2,82.7,7.2,54.7S30.1,5,58,5z"/>
</g>
<g id="Layer_2">
	<polygon class="st0" points="4.5,72.4 4.5,37.6 28.4,37.6 28.4,43.5 11.5,43.5 11.5,51.7 26.1,51.7 26.1,57.7 11.5,57.7 11.5,72.4 
			"/>
	<path class="st0" d="M46.7,72.4v-3.7c-1.9,2.7-5,4.4-8.3,4.4c-1.6,0-3.1-0.4-4.5-1.1c-1.3-0.7-2.3-1.8-2.9-3.1
		c-0.7-1.8-1-3.7-0.9-5.6v-16h6.7v11.6c-0.1,2.2,0,4.4,0.4,6.5c0.2,0.8,0.7,1.4,1.3,1.9c0.7,0.5,1.6,0.7,2.5,0.7
		c1.1,0,2.2-0.3,3.1-0.9c0.8-0.6,1.4-1.4,1.8-2.3c0.4-2.2,0.6-4.5,0.5-6.8V47.2h6.7v25.2H46.7z"/>
	<path class="st0" d="M46.7,47.2h6.2v3.5c1.9-2.5,4.8-4,7.9-4c1.5,0,2.9,0.3,4.2,1c1.2,0.7,2.2,1.7,2.9,3c1-1.2,2.2-2.3,3.6-3
		c2.8-1.4,6.1-1.3,8.8,0.1c1.3,0.8,2.3,1.9,2.9,3.3c0.5,1.7,0.8,3.4,0.7,5.2v16.1h-6.7V58c0-2.5-0.2-4.1-0.7-4.8
		c-0.6-1-1.7-1.6-2.9-1.5c-0.9,0-1.9,0.3-2.6,0.9c-0.9,0.6-1.5,1.5-1.8,2.5c-0.4,1.7-0.6,3.4-0.6,5.2v12.1h-6.7V58.6
		c0.1-1.6,0-3.2-0.4-4.8c-0.2-0.6-0.6-1.2-1.1-1.6c-0.6-0.4-1.3-0.6-2-0.5c-1,0-2,0.3-2.8,0.8c-0.8,0.6-1.5,1.4-1.8,2.4
		c-0.4,1.7-0.6,3.5-0.5,5.2v12.3h-6.7L46.7,47.2L46.7,47.2z"/>
	<path class="st0" d="M92.8,59.4c0,2.9,0.6,5,1.7,6.3c1.7,2.2,4.9,2.7,7.1,1c0.3-0.2,0.6-0.5,0.9-0.9c1-1.2,1.5-3.3,1.5-6.1
		s-0.5-4.6-1.6-5.9c-0.9-1.2-2.4-1.9-3.9-1.9c-1.6,0-3.1,0.7-4.1,1.9C93.2,55.4,92.6,57.4,92.8,59.4z M86.2,47.2h6.2v3.7
		c0.8-1.3,2-2.4,3.3-3.1c4-2.2,9.1-1.3,12,2.3c2,2.3,3.1,5.5,3.1,9.6s-1,7.5-3.1,9.8c-1.9,2.2-4.6,3.5-7.5,3.5
		c-1.3,0-2.6-0.3-3.8-0.8c-1.4-0.7-2.6-1.7-3.6-2.8v12.7h-6.7L86.2,47.2L86.2,47.2z"/>
</g>
</svg>
