<svg id="Layer_1" data-name="Layer 1" xmlns="http://www.w3.org/2000/svg" viewBox="0 0 105.67 105.17"><defs><style>.cls-1{fill:#fff;}</style></defs><title>fump2Dreverse</title><path class="cls-1" d="M4.85,54.73a52.84,52.84,0,1,0,105.67,0C110.52,25.42,87.16,2.58,58,2.58S4.85,25.38,4.85,54.73ZM35.07,38.55,20,38.53a22.81,22.81,0,0,0-2.11,4.33,15.92,15.92,0,0,0-1,4.82c5.21,0,4.55-.07,9.77-.09v6.61l-10.07-.14a31.57,31.57,0,0,0,.89,8.78,50.89,50.89,0,0,0,2.3,7.51c-2.18,0-5.12,0-7.49,0q-.28-.82-.53-1.65a48.43,48.43,0,0,1-2.05-14A46.86,46.86,0,0,1,12.75,37.8q.64-1.66,1.4-3.26a4.93,4.93,0,0,1,2.31-2.07,6.45,6.45,0,0,1,2.21-.42h16.4Zm67.26,9c1.84,2.34,2.85,5.59,2.85,9.77s-.92,7.63-2.85,10a8.79,8.79,0,0,1-6.9,3.56,8.42,8.42,0,0,1-3.5-.81,11.7,11.7,0,0,1-3.31-2.85V80.11H82.46l.09-35.5h5.7v3.76a8.61,8.61,0,0,1,3-3.15A8.22,8.22,0,0,1,102.34,47.56ZM77.13,45.22a7.1,7.1,0,0,1,2.67,3.36,17,17,0,0,1,.64,5.29V70.24H74.27V55.59c0-2.54-.18-4.17-.64-4.88A2.76,2.76,0,0,0,71,49.19a3.56,3.56,0,0,0-2.39.92,4.62,4.62,0,0,0-1.66,2.54,25,25,0,0,0-.55,5.29V70.24H60.2v-14a17.5,17.5,0,0,0-.37-4.88,3.65,3.65,0,0,0-1-1.63A2.45,2.45,0,0,0,57,49.19,4.61,4.61,0,0,0,54.4,50a4.88,4.88,0,0,0-1.66,2.44,20.59,20.59,0,0,0-.46,5.29V70.24H46.12V66.62A9.18,9.18,0,0,1,38.58,71a8.47,8.47,0,0,1-4.14-1.12,6.58,6.58,0,0,1-2.67-3.15,15,15,0,0,1-.83-5.7V44.71H37.1v11.8a31.52,31.52,0,0,0,.37,6.61,3.73,3.73,0,0,0,1.2,1.93,3.68,3.68,0,0,0,2.3.71,4.81,4.81,0,0,0,2.85-.91,5.83,5.83,0,0,0,1.66-2.34,34.48,34.48,0,0,0,.46-6.92v-11H52.1v3.3a8.85,8.85,0,0,1,7.08-3.81,6.86,6.86,0,0,1,6.53,4.07A11,11,0,0,1,69,45.12,8.21,8.21,0,0,1,77.13,45.22Zm13,6.1A8.8,8.8,0,0,0,88.63,57c0,3,.55,5.09,1.56,6.41a4.4,4.4,0,0,0,6.53,1,3.7,3.7,0,0,0,.83-.91c.92-1.22,1.38-3.36,1.38-6.21s-.46-4.68-1.47-6a4.39,4.39,0,0,0-3.59-1.93A4.73,4.73,0,0,0,90.1,51.32Z" transform="translate(-4.85 -2.58)"/></svg>