<svg id="Layer_1" data-name="Layer 1" xmlns="http://www.w3.org/2000/svg" xmlns:xlink="http://www.w3.org/1999/xlink" viewBox="0 0 134 149.04"><defs><style>.cls-1,.cls-4{fill:none;}.cls-2{clip-path:url(#clip-path);}.cls-3,.cls-6{fill:#007bff;}.cls-4{stroke:#007bff;stroke-width:6.08px;}.cls-5{fill:#fff;}.cls-6{font-size:17px;font-family:MyriadPro-Regular, Myriad Pro;}</style><clipPath id="clip-path" transform="translate(-3 0.04)"><polyline class="cls-1" points="122.3 0 122.3 105.4 16 105.4 16 0"/></clipPath></defs><title>fump and text</title><g class="cls-2"><circle class="cls-3" cx="65.9" cy="52.74" r="49.7"/><circle class="cls-4" cx="65.9" cy="52.74" r="49.7"/><polygon class="cls-5" points="13 69.74 13 34.94 36.9 34.94 36.9 40.84 20 40.84 20 49.04 34.6 49.04 34.6 55.04 20 55.04 20 69.74 13 69.74"/><path class="cls-5" d="M58.2,69.7V66a10.24,10.24,0,0,1-8.3,4.4,9.66,9.66,0,0,1-4.5-1.1,6.69,6.69,0,0,1-2.9-3.1,13.46,13.46,0,0,1-.9-5.6v-16h6.7V56.2a28.08,28.08,0,0,0,.4,6.5A3.63,3.63,0,0,0,50,64.6a4.3,4.3,0,0,0,2.5.7,5.61,5.61,0,0,0,3.1-.9,5,5,0,0,0,1.8-2.3,28.59,28.59,0,0,0,.5-6.8V44.5h6.7V69.7Z" transform="translate(-3 0.04)"/><path class="cls-5" d="M58.2,44.5h6.2V48a10,10,0,0,1,7.9-4,8.68,8.68,0,0,1,4.2,1,7.62,7.62,0,0,1,2.9,3A11.55,11.55,0,0,1,83,45a9.73,9.73,0,0,1,8.8.1,7.15,7.15,0,0,1,2.9,3.3,15.54,15.54,0,0,1,.7,5.2V69.7H88.7V55.3c0-2.5-.2-4.1-.7-4.8A3.27,3.27,0,0,0,85.1,49a4.11,4.11,0,0,0-2.6.9,4.52,4.52,0,0,0-1.8,2.5,23.06,23.06,0,0,0-.6,5.2V69.7H73.4V55.9a15.61,15.61,0,0,0-.4-4.8,3.55,3.55,0,0,0-1.1-1.6,2.88,2.88,0,0,0-2-.5,5.38,5.38,0,0,0-2.8.8,4.81,4.81,0,0,0-1.8,2.4,18.37,18.37,0,0,0-.5,5.2V69.7H58.1V44.5Z" transform="translate(-3 0.04)"/><path class="cls-5" d="M104.3,56.7c0,2.9.6,5,1.7,6.3a5.08,5.08,0,0,0,8,.1c1-1.2,1.5-3.3,1.5-6.1s-.5-4.6-1.6-5.9a4.93,4.93,0,0,0-3.9-1.9,5.33,5.33,0,0,0-4.1,1.9A8,8,0,0,0,104.3,56.7ZM97.7,44.5h6.2v3.7a9,9,0,0,1,3.3-3.1,9.52,9.52,0,0,1,12,2.3c2,2.3,3.1,5.5,3.1,9.6s-1,7.5-3.1,9.8a9.75,9.75,0,0,1-7.5,3.5,10,10,0,0,1-3.8-.8,12.46,12.46,0,0,1-3.6-2.8V79.4H97.6V44.5Z" transform="translate(-3 0.04)"/></g><text class="cls-6" transform="translate(7.44 127.11)">WEBSITE DESIGN</text></svg>